<svg width="34" height="22" viewBox="0 0 34 22" fill="none" xmlns="http://www.w3.org/2000/svg">
<path d="M9.57976 7.98756C9.57976 8.44288 9.6297 8.80851 9.70726 9.07756C9.79544 9.34661 9.91231 9.64095 10.0674 9.95829C10.128 10.0606 10.1503 10.1561 10.1503 10.24C10.1503 10.3653 10.0781 10.486 9.93462 10.6114L9.22065 11.1207C9.13247 11.1932 9.0326 11.2288 8.92742 11.2346C8.81161 11.2346 8.70005 11.1748 8.58956 11.0609C8.43444 10.8873 8.30163 10.6953 8.18051 10.486C8.05302 10.2526 7.93721 10.0135 7.83203 9.76743C6.947 10.8931 5.83993 11.4565 4.50655 11.4565C3.55459 11.4565 2.79707 11.1633 2.24353 10.5757C1.68999 9.98244 1.40844 9.20403 1.40844 8.22212C1.40844 7.18616 1.7463 6.33532 2.43796 5.70064C3.12961 5.06596 4.04226 4.74861 5.20989 4.74861C5.59131 4.74861 5.98973 4.78426 6.40515 4.84405C6.82588 4.90384 7.25724 5.00617 7.70559 5.1131V4.22086C7.70559 3.29299 7.52817 2.63991 7.17437 2.26278C6.8142 1.88565 6.20648 1.69938 5.33208 1.69938C4.93897 1.69938 4.52993 1.74767 4.10919 1.8546C3.69378 1.96843 3.28473 2.10066 2.89162 2.27428C2.75882 2.33981 2.62601 2.3881 2.4932 2.4364C2.43796 2.45479 2.3774 2.46629 2.31577 2.47204C2.15534 2.47204 2.07779 2.34671 2.07779 2.08916V1.49012C2.07779 1.29811 2.1001 1.14864 2.15534 1.0647C2.23822 0.950873 2.34871 0.861189 2.47089 0.80715C2.86931 0.585241 3.33998 0.400125 3.89352 0.256402C4.47468 0.0942824 5.06646 0.0172468 5.65825 0.0229957C7.00863 0.0229957 7.98821 0.351834 8.62462 1.01756C9.24403 1.67639 9.55957 2.6767 9.55957 4.02425V7.98871L9.57976 7.98756ZM4.99209 9.85021C5.36289 9.85021 5.75068 9.77778 6.15441 9.6283C6.56346 9.48458 6.92363 9.21553 7.22749 8.8499C7.41023 8.61649 7.54835 8.35894 7.61529 8.06575C7.68222 7.77255 7.72578 7.41267 7.72578 6.99989V6.48479C7.38261 6.39511 7.03944 6.32267 6.68564 6.27553C6.33716 6.22724 5.98336 6.20309 5.62319 6.20309C4.8646 6.20309 4.31212 6.36521 3.94133 6.69405C3.56522 7.02289 3.38779 7.49085 3.38779 8.10139C3.38779 8.67628 3.5206 9.1017 3.80321 9.3949C4.07413 9.70074 4.47149 9.85021 4.99209 9.85021ZM14.0729 11.1736C13.8679 11.1736 13.7298 11.138 13.6416 11.0483C13.5534 10.9759 13.4705 10.8022 13.4036 10.5757L10.7474 1.11414C10.6975 0.952022 10.6593 0.791052 10.6476 0.623184C10.6476 0.425421 10.7358 0.317341 10.9132 0.317341H12.0256C12.2413 0.317341 12.3858 0.352984 12.4622 0.436919C12.5568 0.509355 12.6227 0.682973 12.6896 0.916379L14.5935 9.01892L16.3583 0.916379C16.4135 0.670325 16.4804 0.509355 16.5686 0.436919C16.7067 0.347235 16.8619 0.304693 17.0223 0.317341H17.9243C18.14 0.317341 18.2898 0.352984 18.378 0.436919C18.4662 0.509355 18.549 0.682973 18.5937 0.916379L20.3807 9.11435L22.3346 0.916379C22.4068 0.670325 22.4844 0.509355 22.5619 0.436919C22.6947 0.347235 22.8498 0.304693 23.005 0.317341H24.0568C24.2395 0.317341 24.3394 0.412773 24.3394 0.623184C24.3394 0.682973 24.3288 0.742761 24.3171 0.820947C24.3001 0.923278 24.2725 1.02446 24.2395 1.12679L21.5112 10.5826C21.4442 10.8287 21.3677 10.9897 21.2732 11.0621C21.1457 11.1518 20.9969 11.1943 20.8471 11.1817H19.8729C19.6572 11.1817 19.5127 11.146 19.4192 11.0621C19.331 10.9782 19.2534 10.816 19.2088 10.5711L17.4547 2.67785L15.7112 10.5585C15.656 10.8045 15.589 10.9655 15.4955 11.0494C15.4074 11.1334 15.2469 11.169 15.0419 11.169L14.0729 11.1736ZM28.5988 11.5036C28.0123 11.5036 27.4258 11.4254 26.8617 11.2817C26.2975 11.138 25.8545 10.9759 25.5612 10.7907C25.3785 10.6827 25.2574 10.5631 25.2127 10.4493C25.1681 10.3412 25.1405 10.2273 25.1405 10.1078V9.48458C25.1405 9.22703 25.235 9.1017 25.4008 9.1017C25.4677 9.1017 25.5389 9.1132 25.6058 9.13735C25.6728 9.16724 25.7769 9.21553 25.8885 9.26267C26.2763 9.44779 26.6906 9.59151 27.1337 9.68809C27.5873 9.79042 28.0251 9.83757 28.4787 9.83757C29.1927 9.83757 29.7462 9.69959 30.1276 9.43054C30.5038 9.18449 30.7311 8.74182 30.7194 8.26926C30.7247 7.95192 30.6142 7.64607 30.4156 7.41267C30.2105 7.18501 29.8238 6.97575 29.2702 6.77799L27.6319 6.22724C26.8075 5.94554 26.1934 5.53277 25.8226 4.98202C25.4571 4.47267 25.2584 3.85063 25.2531 3.2033C25.2531 2.6882 25.3583 2.23863 25.5633 1.84426C25.7684 1.45448 26.0393 1.11414 26.3772 0.843943C26.715 0.562245 27.1018 0.352984 27.5501 0.209261C28.0038 0.0597885 28.4798 0 28.9781 0C29.2267 0 29.487 0.0114976 29.7367 0.0482908C29.997 0.0839341 30.235 0.132225 30.4729 0.186265C30.6939 0.246054 30.9096 0.305843 31.1147 0.378279C31.3197 0.450716 31.4801 0.527752 31.5906 0.600188C31.7234 0.672625 31.8393 0.779555 31.9285 0.906031C32.0061 1.02561 32.039 1.16933 32.0337 1.31306V1.88795C32.0337 2.1455 31.9391 2.27773 31.7734 2.27773C31.6183 2.25933 31.4748 2.21219 31.342 2.134C30.661 1.80516 29.9194 1.64304 29.1725 1.65454C28.5255 1.65454 28.0155 1.76262 27.667 1.99603C27.3132 2.22943 27.1358 2.58242 27.1358 3.08602C27.1358 3.42751 27.2463 3.72071 27.4736 3.95411C27.701 4.18752 28.1207 4.42093 28.7188 4.63134L30.3231 5.17633C31.137 5.45803 31.7288 5.85356 32.0772 6.35602C32.4257 6.85272 32.5978 7.42762 32.5978 8.0692C32.5978 8.59005 32.4927 9.06951 32.3046 9.48803C32.0996 9.9008 31.8286 10.2664 31.4801 10.5665C31.1263 10.8724 30.7109 11.0874 30.2243 11.2495C29.7154 11.4174 29.1842 11.5071 28.603 11.5071L28.5988 11.5036ZM30.7396 17.4491C27.0157 20.4259 21.6142 22 16.966 22C10.4531 22 4.58199 19.3946 0.149436 15.0599C-0.199048 14.7184 0.1165 14.2516 0.537231 14.5264C5.32889 17.5331 11.2447 19.3589 17.3591 19.3589C21.4867 19.3589 26.0191 18.4242 30.1967 16.5201C30.8161 16.2085 31.3473 16.957 30.7386 17.448L30.7396 17.4491ZM32.2897 15.5394C31.8138 14.8805 29.1406 15.222 27.9347 15.3841C27.5746 15.4324 27.514 15.0852 27.8466 14.8276C29.9715 13.2168 33.4627 13.6778 33.8728 14.2171C34.2765 14.7736 33.757 18.5529 31.7702 20.3616C31.4663 20.6433 31.1667 20.4995 31.3048 20.1281C31.7585 18.9186 32.7657 16.1924 32.2897 15.5394Z" fill="url(#paint0_linear_104_15)"/>
<defs>
<linearGradient id="paint0_linear_104_15" x1="16.9992" y1="12.4283" x2="16.9992" y2="13.824" gradientUnits="userSpaceOnUse">
<stop/>
<stop offset="1" stop-color="#EF931E"/>
</linearGradient>
</defs>
</svg>
